<svg xmlns="http://www.w3.org/2000/svg" viewBox="0 0 512 512" role="img" aria-label="Rooster app icon">
  <defs>
    <linearGradient id="daybreak" x1="0" y1="0" x2="1" y2="1">
      <stop offset="0" stop-color="#F98D0B"/>
      <stop offset="1" stop-color="#E93D5E"/>
    </linearGradient>
    <radialGradient id="bloom" cx="0.22" cy="0.12" r="0.85">
      <stop offset="0" stop-color="#FFC24D" stop-opacity="0.5"/>
      <stop offset="0.55" stop-color="#FFC24D" stop-opacity="0"/>
    </radialGradient>
    <clipPath id="squircle">
      <rect width="512" height="512" rx="115"/>
    </clipPath>
  </defs>

  <g clip-path="url(#squircle)">
    <rect width="512" height="512" fill="url(#daybreak)"/>
    <rect width="512" height="512" fill="url(#bloom)"/>
    <g transform="translate(-70 16)">
      <g fill="#C2263C">
        <circle cx="208" cy="150" r="30"/>
        <circle cx="252" cy="132" r="35"/>
        <circle cx="297" cy="152" r="29"/>
        <rect x="212" y="150" width="88" height="44"/>
      </g>
      <circle cx="244" cy="250" r="98" fill="#FFF4E2"/>
      <g fill="#C2263C">
        <circle cx="291" cy="349" r="27"/>
        <circle cx="276" cy="376" r="19"/>
      </g>
      <circle cx="272" cy="228" r="15" fill="#2E1216"/>
      <circle cx="278" cy="222" r="5" fill="#FFF4E2"/>
      <path d="M336 222 L432 246 L338 268 Z" fill="#FFD23F" stroke="#FFD23F" stroke-width="12" stroke-linejoin="round"/>
      <path d="M336 280 L400 294 L334 304 Z" fill="#F0A80A" stroke="#F0A80A" stroke-width="10" stroke-linejoin="round"/>
      <g fill="none" stroke="#FFF4E2" stroke-linecap="round">
        <path d="M444 228 A42 42 0 0 1 444 296" stroke-width="19"/>
        <path d="M464 200 A76 76 0 0 1 464 324" stroke-width="18" opacity="0.78"/>
      </g>
    </g>
  </g>
</svg>
