<svg xmlns="http://www.w3.org/2000/svg" viewBox="0 0 380 318" role="img" aria-label="Rooster logo">
  <!-- Rooster · logo mark for dark backgrounds · v1.0 -->
  <g transform="translate(-136 -87)">
    <g fill="#E8503A">
      <circle cx="208" cy="150" r="30"/>
      <circle cx="252" cy="132" r="35"/>
      <circle cx="297" cy="152" r="29"/>
      <rect x="212" y="150" width="88" height="44"/>
    </g>
    <circle cx="244" cy="250" r="98" fill="#FFF4E2"/>
    <g fill="#E8503A">
      <circle cx="291" cy="349" r="27"/>
      <circle cx="276" cy="376" r="19"/>
    </g>
    <circle cx="272" cy="228" r="15" fill="#1D1610"/>
    <circle cx="278" cy="222" r="5" fill="#FFF4E2"/>
    <path d="M336 222 L432 246 L338 268 Z" fill="#FFA928" stroke="#FFA928" stroke-width="12" stroke-linejoin="round"/>
    <path d="M336 280 L400 294 L334 304 Z" fill="#E88C12" stroke="#E88C12" stroke-width="10" stroke-linejoin="round"/>
    <g fill="none" stroke="#FFA928" stroke-linecap="round">
      <path d="M444 228 A42 42 0 0 1 444 296" stroke-width="19"/>
      <path d="M464 200 A76 76 0 0 1 464 324" stroke-width="18" opacity="0.66"/>
    </g>
  </g>
</svg>
